<svg width="1886" height="690" viewBox="0 0 1886 690" fill="none" xmlns="http://www.w3.org/2000/svg">
<path d="M1781.21 250.381C1772.58 250.381 1765.35 247.698 1759.52 242.333C1753.92 236.735 1751.12 229.854 1751.12 221.69C1751.12 213.526 1753.92 206.762 1759.52 201.397C1765.35 195.799 1772.58 193 1781.21 193C1789.85 193 1796.96 195.799 1802.56 201.397C1808.39 206.762 1811.3 213.526 1811.3 221.69C1811.3 229.854 1808.39 236.735 1802.56 242.333C1796.96 247.698 1789.85 250.381 1781.21 250.381ZM1805.36 273.473V467.308H1756.37V273.473H1805.36Z" fill="#EDEDED"/>
<path d="M1720.62 366.192C1720.62 373.19 1720.15 379.488 1719.22 385.086H1577.52C1578.68 399.081 1583.58 410.044 1592.21 417.975C1600.84 425.905 1611.46 429.871 1624.05 429.871C1642.25 429.871 1655.19 422.057 1662.89 406.429H1715.72C1710.12 425.089 1699.39 440.484 1683.53 452.613C1667.67 464.509 1648.19 470.457 1625.1 470.457C1606.44 470.457 1589.65 466.375 1574.72 458.211C1560.02 449.814 1548.48 438.035 1540.08 422.873C1531.92 407.711 1527.83 390.217 1527.83 370.391C1527.83 350.331 1531.92 332.72 1540.08 317.558C1548.24 302.397 1559.67 290.734 1574.37 282.57C1589.06 274.406 1605.97 270.324 1625.1 270.324C1643.53 270.324 1659.97 274.289 1674.43 282.22C1689.13 290.151 1700.44 301.464 1708.37 316.159C1716.54 330.621 1720.62 347.298 1720.62 366.192ZM1669.89 352.197C1669.65 339.601 1665.1 329.571 1656.24 322.107C1647.38 314.409 1636.53 310.561 1623.7 310.561C1611.57 310.561 1601.31 314.293 1592.91 321.757C1584.75 328.988 1579.73 339.134 1577.87 352.197H1669.89Z" fill="#EDEDED"/>
<path d="M1492.03 208.395V467.308H1443.05V208.395H1492.03Z" fill="#EDEDED"/>
<path d="M1254.91 301.814C1261.2 292.483 1269.83 284.903 1280.8 279.071C1291.99 273.24 1304.71 270.324 1318.93 270.324C1335.5 270.324 1350.42 274.406 1363.72 282.57C1377.25 290.734 1387.86 302.397 1395.56 317.558C1403.49 332.487 1407.46 349.864 1407.46 369.691C1407.46 389.518 1403.49 407.128 1395.56 422.523C1387.86 437.685 1377.25 449.464 1363.72 457.861C1350.42 466.258 1335.5 470.457 1318.93 470.457C1304.47 470.457 1291.76 467.658 1280.8 462.06C1270.07 456.229 1261.44 448.764 1254.91 439.667V467.308H1205.92V208.395H1254.91V301.814ZM1357.42 369.691C1357.42 358.028 1354.97 347.998 1350.07 339.601C1345.41 330.97 1339.11 324.439 1331.18 320.007C1323.48 315.576 1315.09 313.36 1305.99 313.36C1297.13 313.36 1288.73 315.692 1280.8 320.357C1273.1 324.789 1266.8 331.32 1261.9 339.951C1257.24 348.581 1254.91 358.728 1254.91 370.391C1254.91 382.053 1257.24 392.2 1261.9 400.83C1266.8 409.461 1273.1 416.109 1280.8 420.774C1288.73 425.206 1297.13 427.421 1305.99 427.421C1315.09 427.421 1323.48 425.089 1331.18 420.424C1339.11 415.759 1345.41 409.111 1350.07 400.481C1354.97 391.85 1357.42 381.587 1357.42 369.691Z" fill="#EDEDED"/>
<path d="M956.199 369.691C956.199 350.097 960.048 332.72 967.745 317.558C975.676 302.397 986.289 290.734 999.585 282.57C1013.11 274.406 1028.16 270.324 1044.72 270.324C1059.18 270.324 1071.78 273.24 1082.51 279.071C1093.47 284.903 1102.22 292.25 1108.75 301.114V273.473H1158.08V467.308H1108.75V438.968C1102.45 448.065 1093.7 455.645 1082.51 461.71C1071.54 467.541 1058.83 470.457 1044.37 470.457C1028.04 470.457 1013.11 466.259 999.585 457.861C986.289 449.464 975.676 437.685 967.745 422.523C960.048 407.128 956.199 389.518 956.199 369.691ZM1108.75 370.391C1108.75 358.495 1106.42 348.348 1101.75 339.951C1097.09 331.32 1090.79 324.789 1082.86 320.357C1074.93 315.692 1066.41 313.36 1057.32 313.36C1048.22 313.36 1039.82 315.576 1032.12 320.007C1024.43 324.439 1018.13 330.97 1013.23 339.601C1008.57 347.998 1006.23 358.028 1006.23 369.691C1006.23 381.354 1008.57 391.617 1013.23 400.481C1018.13 409.111 1024.43 415.759 1032.12 420.424C1040.05 425.089 1048.45 427.421 1057.32 427.421C1066.41 427.421 1074.93 425.206 1082.86 420.774C1090.79 416.109 1097.09 409.577 1101.75 401.18C1106.42 392.55 1108.75 382.287 1108.75 370.391Z" fill="#EDEDED"/>
<path d="M920.582 223.09V467.308H871.599V363.393H766.984V467.308H718V223.09H766.984V323.506H871.599V223.09H920.582Z" fill="#EDEDED"/>
<g clip-path="url(#clip0_2_94)">
<path d="M290.449 260.835C327.69 260.835 357.88 230.675 357.88 193.472C357.88 156.268 327.69 126.108 290.449 126.108C253.208 126.108 223.019 156.268 223.019 193.472C223.019 230.675 253.208 260.835 290.449 260.835Z" fill="#07DA83"/>
<path fill-rule="evenodd" clip-rule="evenodd" d="M255.829 73.9354L290.456 133.847L354.831 22.4681L368.941 30.5672L290.442 166.402L241.719 82.1065L255.829 73.9354Z" fill="#07DA83"/>
<path fill-rule="evenodd" clip-rule="evenodd" d="M248.774 52.5033C262.877 52.5033 274.314 63.9285 274.314 78.0174C274.314 92.1063 262.877 103.531 248.774 103.531C234.671 103.531 223.235 92.1063 223.235 78.0174C223.235 63.9285 234.671 52.5033 248.774 52.5033Z" fill="#07DA83"/>
<path fill-rule="evenodd" clip-rule="evenodd" d="M361.886 1C375.989 1 387.426 12.4252 387.426 26.5141C387.426 40.603 375.989 52.0282 361.886 52.0282C347.783 52.0282 336.347 40.603 336.347 26.5141C336.347 12.4252 347.776 1 361.886 1Z" fill="#07DA83"/>
<path fill-rule="evenodd" clip-rule="evenodd" d="M518.885 252.196V493.557C518.885 517.574 497.561 531.425 480.878 545.219L308.97 687.368C305.51 690.226 300.999 690.795 296.942 688.887C292.885 686.979 290.449 683.142 290.449 678.664V596.009C290.449 585.686 282.198 577.227 271.871 576.946C164.178 574.088 62.0129 546.284 62.0129 493.55V252.188C62.0129 140.665 518.892 140.665 518.892 252.188L518.885 252.196Z" fill="#07DA83"/>
<path fill-rule="evenodd" clip-rule="evenodd" d="M459.598 259.719C456.088 257.192 451.029 254.579 448.392 253.319C436.018 247.408 422.002 243.261 408.699 240.087C370.865 231.044 329.292 227.79 290.456 227.79C251.621 227.79 210.047 231.044 172.213 240.087C158.91 243.261 144.887 247.408 132.52 253.319C129.883 254.579 124.824 257.192 121.314 259.719V486.041C124.824 488.568 129.883 491.181 132.52 492.441C144.894 498.352 158.91 502.499 172.213 505.673C210.047 514.716 251.621 517.97 290.456 517.97C329.292 517.97 370.865 514.716 408.699 505.673C422.002 502.491 436.026 498.352 448.392 492.441C451.029 491.181 456.088 488.568 459.598 486.041V259.719Z" fill="white"/>
<path fill-rule="evenodd" clip-rule="evenodd" d="M210.754 322.863C228.669 322.863 243.19 345.253 243.19 372.876C243.19 400.5 228.669 422.89 210.754 422.89C192.838 422.89 178.31 400.5 178.31 372.876C178.31 345.253 192.831 322.863 210.754 322.863Z" fill="#091B29"/>
<path fill-rule="evenodd" clip-rule="evenodd" d="M370.145 322.863C388.06 322.863 402.581 345.253 402.581 372.876C402.581 400.5 388.06 422.89 370.145 422.89C352.229 422.89 337.708 400.5 337.708 372.876C337.708 345.253 352.229 322.863 370.145 322.863Z" fill="#091B29"/>
<path fill-rule="evenodd" clip-rule="evenodd" d="M37.6913 286.889H48.2991V458.878H37.6913C15.0055 458.878 -3.55103 440.34 -3.55103 417.677V328.097C-3.55103 305.434 15.0055 286.896 37.6913 286.896V286.889Z" fill="#07DA83"/>
<path fill-rule="evenodd" clip-rule="evenodd" d="M543.207 286.889H532.599V458.878H543.207C565.893 458.878 584.449 440.34 584.449 417.677V328.097C584.449 305.434 565.893 286.896 543.207 286.896V286.889Z" fill="#07DA83"/>
</g>
<defs>
<clipPath id="clip0_2_94">
<rect width="588" height="689" fill="white" transform="translate(0 1)"/>
</clipPath>
</defs>
</svg>
