<svg width="588" height="689" viewBox="0 0 588 689" fill="none" xmlns="http://www.w3.org/2000/svg">
<g clip-path="url(#clip0_2_69)">
<path d="M290.449 259.835C327.69 259.835 357.88 229.675 357.88 192.472C357.88 155.268 327.69 125.108 290.449 125.108C253.208 125.108 223.019 155.268 223.019 192.472C223.019 229.675 253.208 259.835 290.449 259.835Z" fill="#07DA83"/>
<path fill-rule="evenodd" clip-rule="evenodd" d="M255.829 72.9354L290.456 132.847L354.831 21.4681L368.941 29.5672L290.442 165.402L241.719 81.1065L255.829 72.9354Z" fill="#07DA83"/>
<path fill-rule="evenodd" clip-rule="evenodd" d="M248.774 51.5033C262.877 51.5033 274.314 62.9285 274.314 77.0174C274.314 91.1063 262.877 102.531 248.774 102.531C234.671 102.531 223.235 91.1063 223.235 77.0174C223.235 62.9285 234.671 51.5033 248.774 51.5033Z" fill="#07DA83"/>
<path fill-rule="evenodd" clip-rule="evenodd" d="M361.886 0C375.989 0 387.425 11.4252 387.425 25.5141C387.425 39.603 375.989 51.0282 361.886 51.0282C347.783 51.0282 336.346 39.603 336.346 25.5141C336.346 11.4252 347.776 0 361.886 0Z" fill="#07DA83"/>
<path fill-rule="evenodd" clip-rule="evenodd" d="M518.885 251.196V492.557C518.885 516.574 497.561 530.425 480.878 544.219L308.969 686.368C305.51 689.226 300.999 689.795 296.942 687.887C292.885 685.979 290.449 682.142 290.449 677.664V595.009C290.449 584.686 282.198 576.227 271.871 575.946C164.178 573.088 62.0128 545.284 62.0128 492.55V251.188C62.0128 139.665 518.892 139.665 518.892 251.188L518.885 251.196Z" fill="#07DA83"/>
<path fill-rule="evenodd" clip-rule="evenodd" d="M459.598 258.719C456.088 256.192 451.029 253.579 448.392 252.319C436.018 246.408 422.002 242.261 408.699 239.087C370.865 230.044 329.291 226.79 290.456 226.79C251.621 226.79 210.047 230.044 172.213 239.087C158.91 242.261 144.887 246.408 132.52 252.319C129.883 253.579 124.824 256.192 121.314 258.719V485.041C124.824 487.568 129.883 490.181 132.52 491.441C144.894 497.352 158.91 501.499 172.213 504.673C210.047 513.716 251.621 516.97 290.456 516.97C329.291 516.97 370.865 513.716 408.699 504.673C422.002 501.491 436.026 497.352 448.392 491.441C451.029 490.181 456.088 487.568 459.598 485.041V258.719Z" fill="white"/>
<path fill-rule="evenodd" clip-rule="evenodd" d="M210.753 321.863C228.669 321.863 243.19 344.253 243.19 371.876C243.19 399.5 228.669 421.89 210.753 421.89C192.838 421.89 178.31 399.5 178.31 371.876C178.31 344.253 192.831 321.863 210.753 321.863Z" fill="#091B29"/>
<path fill-rule="evenodd" clip-rule="evenodd" d="M370.145 321.863C388.06 321.863 402.581 344.253 402.581 371.876C402.581 399.5 388.06 421.89 370.145 421.89C352.229 421.89 337.708 399.5 337.708 371.876C337.708 344.253 352.229 321.863 370.145 321.863Z" fill="#091B29"/>
<path fill-rule="evenodd" clip-rule="evenodd" d="M37.6911 285.889H48.299V457.878H37.6911C15.0054 457.878 -3.55115 439.34 -3.55115 416.677V327.097C-3.55115 304.434 15.0054 285.896 37.6911 285.896V285.889Z" fill="#07DA83"/>
<path fill-rule="evenodd" clip-rule="evenodd" d="M543.207 285.889H532.599V457.878H543.207C565.893 457.878 584.449 439.34 584.449 416.677V327.097C584.449 304.434 565.893 285.896 543.207 285.896V285.889Z" fill="#07DA83"/>
</g>
<defs>
<clipPath id="clip0_2_69">
<rect width="588" height="689" fill="white"/>
</clipPath>
</defs>
</svg>
