<svg width="588" height="689" viewBox="0 0 588 689" fill="none" xmlns="http://www.w3.org/2000/svg">
<g clip-path="url(#clip0_19_2)">
<path d="M290.449 259.835C327.69 259.835 357.88 229.675 357.88 192.472C357.88 155.268 327.69 125.108 290.449 125.108C253.208 125.108 223.019 155.268 223.019 192.472C223.019 229.675 253.208 259.835 290.449 259.835Z" fill="white"/>
<path fill-rule="evenodd" clip-rule="evenodd" d="M255.829 72.9355L290.456 132.847L354.831 21.4681L368.941 29.5673L290.442 165.402L241.719 81.1066L255.829 72.9355Z" fill="white"/>
<path fill-rule="evenodd" clip-rule="evenodd" d="M248.774 51.5033C262.877 51.5033 274.314 62.9285 274.314 77.0174C274.314 91.1063 262.877 102.531 248.774 102.531C234.671 102.531 223.235 91.1063 223.235 77.0174C223.235 62.9285 234.671 51.5033 248.774 51.5033Z" fill="white"/>
<path fill-rule="evenodd" clip-rule="evenodd" d="M361.886 0C375.989 0 387.426 11.4252 387.426 25.5141C387.426 39.603 375.989 51.0282 361.886 51.0282C347.783 51.0282 336.347 39.603 336.347 25.5141C336.347 11.4252 347.776 0 361.886 0Z" fill="white"/>
<path fill-rule="evenodd" clip-rule="evenodd" d="M518.885 251.196V492.557C518.885 516.574 497.561 530.425 480.878 544.219L308.969 686.368C305.51 689.226 300.999 689.795 296.942 687.887C292.885 685.979 290.449 682.142 290.449 677.664V595.009C290.449 584.686 282.198 576.227 271.871 575.946C164.178 573.088 62.0129 545.284 62.0129 492.55V251.188C62.0129 139.665 518.892 139.665 518.892 251.188L518.885 251.196Z" fill="white"/>
<path fill-rule="evenodd" clip-rule="evenodd" d="M37.6913 285.889H48.2991V457.878H37.6913C15.0055 457.878 -3.55103 439.34 -3.55103 416.677V327.097C-3.55103 304.434 15.0055 285.896 37.6913 285.896V285.889Z" fill="white"/>
<path fill-rule="evenodd" clip-rule="evenodd" d="M543.207 285.889H532.599V457.878H543.207C565.893 457.878 584.449 439.34 584.449 416.677V327.097C584.449 304.434 565.893 285.896 543.207 285.896V285.889Z" fill="white"/>
</g>
<defs>
<clipPath id="clip0_19_2">
<rect width="588" height="689" fill="white"/>
</clipPath>
</defs>
</svg>
